<svg width="1707" height="195" viewBox="0 0 1707 195" fill="none" xmlns="http://www.w3.org/2000/svg">
<path d="M36.7193 1.58596C31.2527 3.85263 27.786 7.98596 24.586 16.2526C22.0527 23.186 21.9193 24.6526 23.386 27.586C24.4527 29.3193 25.786 30.786 26.586 30.6526C33.2527 29.8526 32.0527 32.786 25.1193 34.1193C16.7193 35.586 13.386 38.2526 6.18601 48.786C-1.94733 60.386 -1.94733 61.586 5.51934 71.186C8.85267 75.4526 11.386 77.4526 13.5193 77.4526C17.5193 77.4526 17.5193 78.2526 13.5193 87.4526C10.8527 93.3193 10.186 97.3193 9.91934 107.319C9.78601 114.119 10.186 120.519 10.7193 121.319C11.2527 122.253 10.7193 126.919 9.51934 131.853C7.65267 140.253 5.65267 187.719 6.98601 191.719C7.38601 192.786 9.78601 193.453 12.8527 193.453C17.786 193.453 18.0527 193.186 18.0527 189.453C18.0527 187.319 17.386 181.319 16.4527 176.386C14.986 167.986 15.2527 165.719 18.3193 151.319C20.186 142.519 22.8527 132.253 24.186 128.386L26.7193 121.453L36.586 121.719L46.4527 122.119L54.586 138.119C59.1193 147.053 64.7193 157.453 67.2527 161.319C71.1193 167.319 71.9193 169.719 72.186 177.853C72.8527 193.053 73.1193 193.719 79.786 193.186L85.386 192.786L85.1193 187.186C84.8527 180.919 76.0527 154.119 69.2527 138.653C66.186 131.586 64.586 125.853 64.186 119.986C63.9193 115.319 62.0527 107.319 60.186 102.253C58.3193 97.3193 56.7193 91.4526 56.7193 89.3193C56.7193 85.986 57.2527 85.4526 60.186 85.4526C62.7193 85.4526 66.4527 82.786 73.5193 75.986C78.8527 70.6526 83.6527 65.186 84.186 63.7193C85.1193 60.786 75.2527 40.2526 71.1193 36.5193C69.786 35.3193 65.6527 33.7193 61.786 32.786C57.2527 31.7193 55.5193 30.786 56.8527 30.2526C58.4527 29.4526 58.7193 27.986 57.9193 21.7193C57.5193 17.4526 56.0527 12.1193 54.8527 9.71929C51.2527 2.78596 43.1193 -0.81404 36.7193 1.58596ZM22.586 51.586C24.186 55.7193 23.386 65.186 21.2527 67.3193C16.0527 72.6526 14.3193 72.5193 11.386 66.6526C8.31934 60.786 8.31934 60.786 15.2527 53.0526C18.986 48.9193 21.386 48.5193 22.586 51.586ZM71.1193 55.7193C75.1193 61.8526 75.1193 62.1193 72.986 65.7193C66.4527 76.786 56.7193 80.9193 58.586 71.986C60.0527 64.2526 64.986 49.4526 66.0527 49.4526C66.586 49.4526 68.8527 52.2526 71.1193 55.7193Z" fill="black"/>
<path d="M119.519 3.05274C115.919 5.45274 114.053 8.51941 110.719 17.3194C107.253 26.6527 105.786 28.9194 102.853 29.8527C100.186 30.7861 98.0527 33.5861 94.186 41.8527C86.8527 57.0527 85.5193 62.7861 86.586 75.4528C88.0527 92.2528 88.186 92.5194 94.586 91.7194C100.986 91.0528 106.586 92.2528 106.853 94.5194C106.986 95.4528 107.119 98.2528 107.253 100.786C107.386 103.986 108.053 105.453 109.386 105.453C111.253 105.453 122.053 124.919 122.053 128.253C122.053 129.053 119.386 132.653 116.186 136.253C111.919 140.919 109.519 145.319 107.253 152.653C104.719 160.653 103.386 162.919 100.586 164.119C98.4527 165.053 96.0527 167.853 94.7193 170.919C93.386 173.719 91.5193 176.786 90.4527 177.586C89.1193 178.786 89.1193 179.586 90.186 180.919C92.3193 183.453 94.986 183.186 96.7193 180.386C98.0527 178.386 98.186 178.386 97.386 180.786C95.2527 186.919 95.2527 187.719 98.3193 189.719C100.053 190.786 103.386 192.386 105.786 193.186C109.653 194.519 110.319 194.386 112.053 191.586C113.919 188.919 113.919 187.986 112.053 183.719C109.386 177.453 109.519 171.719 112.319 166.386C114.986 161.186 124.453 148.119 125.653 148.119C126.319 148.119 125.519 173.053 124.319 189.453C124.053 192.519 124.586 192.786 129.386 192.786H134.719V179.453C134.719 169.053 135.519 163.186 138.453 152.919C140.453 145.719 142.053 136.386 142.186 132.253C142.186 128.119 143.786 119.853 145.919 113.453C148.853 104.119 149.919 101.986 152.453 101.719C154.319 101.453 155.386 100.386 155.386 98.6528C155.386 96.1194 155.519 96.1194 157.519 97.9861C160.719 101.186 162.986 100.519 162.986 96.3861C163.119 91.1861 165.653 82.1194 168.853 75.7194C171.253 71.1861 171.519 68.9194 170.853 61.5861C170.053 54.1194 170.186 53.1861 171.919 54.6527C176.319 58.3861 176.453 62.9194 172.586 75.3194L168.986 87.1861L169.519 119.319C170.453 173.186 171.386 191.319 173.119 192.386C174.053 192.919 176.319 193.453 178.453 193.453C182.719 193.453 182.853 192.786 180.186 178.786C178.186 168.653 178.586 161.853 182.586 133.453L184.186 122.119L193.253 121.053C198.186 120.386 202.986 120.253 203.919 120.519C206.319 121.453 210.453 135.853 209.519 140.653C209.119 142.919 209.653 150.519 210.586 157.453C212.186 168.519 212.186 170.519 210.453 173.319C208.319 176.653 208.853 185.586 211.386 189.453C212.586 191.186 212.986 191.186 214.586 189.053C216.453 186.653 216.453 186.653 217.386 189.319C218.319 192.253 225.653 194.386 229.653 192.919C231.519 192.119 231.386 191.586 228.319 188.386C222.453 182.119 221.653 178.519 221.919 153.853C222.053 137.186 221.519 127.986 219.919 120.119C218.719 114.253 218.186 107.853 218.586 105.986C219.519 102.386 217.253 76.9194 215.386 69.7194L214.186 65.1861L221.786 72.3861C231.386 81.5861 234.453 83.1861 239.653 82.1194C243.253 81.3194 243.653 81.4528 242.853 83.5861C241.386 87.4528 239.119 105.586 239.919 107.586C240.319 108.653 241.786 109.453 243.119 109.453C244.986 109.453 247.119 112.653 251.119 121.186C254.186 127.586 256.719 133.586 256.719 134.519C256.719 135.453 255.653 137.853 254.453 139.719C252.719 142.253 251.786 147.586 251.119 158.119C250.453 166.119 249.653 176.919 249.253 181.986C248.719 188.786 248.986 191.453 250.186 192.253C252.719 193.719 269.786 193.586 270.853 191.986C271.253 191.319 270.319 187.453 268.853 183.453L266.053 176.119L270.853 163.186C273.386 155.986 276.053 145.586 276.853 140.119C279.519 119.719 284.719 105.453 289.386 105.453C291.786 105.453 295.386 111.453 295.386 115.453C295.386 118.119 296.053 118.786 298.586 118.786C302.453 118.786 302.719 119.853 304.719 139.453C305.386 146.786 307.253 156.919 308.719 162.119C312.186 173.986 312.053 178.653 308.453 186.119C305.919 191.453 305.786 192.386 307.386 193.453C311.119 195.853 318.053 192.253 318.053 187.853C318.053 186.519 318.986 183.986 320.053 182.253C321.919 179.453 321.919 178.653 319.786 173.986C317.919 169.719 317.519 164.653 317.386 144.786V120.786L323.519 120.386C329.653 119.986 329.786 119.986 331.919 125.719C333.253 128.919 338.986 139.986 344.853 150.253C352.453 163.853 355.386 170.519 355.386 173.853C355.386 176.386 356.319 180.253 357.386 182.253C358.453 184.386 359.386 187.053 359.386 188.253C359.386 190.519 364.586 193.453 368.719 193.453C372.053 193.453 372.053 193.719 368.053 184.653C366.186 180.519 362.586 169.319 360.053 159.853C357.519 150.386 353.653 139.186 351.386 134.786C348.453 129.053 347.519 125.186 347.519 120.386C347.653 116.786 347.253 113.053 346.719 112.119C346.186 111.186 346.986 109.719 348.586 108.653C351.119 106.786 351.386 105.319 351.386 93.7194C351.253 86.6528 350.719 76.5194 350.053 71.4528C349.386 66.2528 348.186 56.3861 347.386 49.4527C345.519 33.3194 344.719 31.3194 338.986 30.2527L334.319 29.3194L334.986 18.7861C335.919 5.31941 333.919 1.45274 326.186 1.45274C319.253 1.45274 314.186 7.71941 312.186 18.7861C311.386 23.3194 306.986 29.4527 302.586 31.8527C300.186 33.1861 298.186 40.9194 298.053 48.7861C297.919 57.3194 296.853 59.5861 291.253 61.9861C283.653 65.3194 282.853 64.2527 283.653 50.9194C284.053 44.6527 284.053 38.6527 283.786 37.7194C283.386 36.7861 280.853 34.7861 277.919 33.4527C272.586 30.6527 272.319 30.1194 272.719 23.8527C272.986 19.1861 268.853 4.51941 266.719 2.78607C265.786 1.98607 262.853 0.919407 260.186 0.519407C253.519 -0.54726 247.919 5.05274 246.719 14.2527C245.253 25.1861 244.186 27.1861 237.919 30.7861C232.186 34.2527 224.586 43.3194 216.853 56.5194L213.119 62.9194L212.186 57.8528C211.786 55.0528 211.386 49.0527 211.386 44.5194C211.386 37.3194 211.653 36.3861 213.519 37.0527C216.719 38.2527 214.453 34.6527 209.119 30.2527C206.453 27.9861 204.053 24.1194 202.586 19.7194C199.386 9.71941 195.786 3.05274 192.853 1.45274C183.519 -3.48059 173.919 5.31941 169.919 22.2527C168.986 26.6527 167.119 29.9861 164.319 32.3861C159.919 36.3861 159.519 39.0527 161.386 51.8527C162.719 60.7861 159.919 84.3861 156.719 90.6528L154.453 95.3194L153.786 90.3861C153.386 86.6528 153.786 85.3194 155.519 84.7861C156.986 84.2528 158.053 81.9861 158.586 77.8528C160.186 65.9861 159.519 60.2527 155.386 51.4527C153.253 46.7861 151.386 42.3861 151.386 41.7194C151.386 41.1861 149.919 38.6527 148.053 36.1194C146.186 33.5861 144.719 30.3861 144.586 28.9194C144.586 27.3194 141.653 20.3861 138.319 13.4527C132.586 1.98607 131.653 0.786074 128.053 0.386074C125.519 0.119407 122.319 1.18607 119.519 3.05274ZM106.853 81.0528C105.253 84.9194 99.9193 75.0528 98.8527 66.6528C98.0527 60.7861 98.4527 57.8527 100.186 53.9861L102.453 48.7861L104.986 63.8528C106.453 72.1194 107.253 79.8528 106.853 81.0528ZM145.653 54.3861C147.786 58.2527 148.186 60.6528 147.519 64.7861L146.719 69.9861L143.653 66.2528C141.519 63.4528 140.719 60.6527 140.719 55.9861C140.719 52.3861 141.253 49.4527 141.786 49.4527C142.453 49.4527 144.186 51.7194 145.653 54.3861ZM242.186 61.7194C244.853 70.5194 244.853 71.0528 242.719 73.4528C241.386 74.9194 239.519 76.1194 238.586 76.1194C236.586 76.1194 226.053 64.3861 226.053 61.9861C226.053 59.3194 235.386 50.9194 237.519 51.7194C238.586 52.1194 240.719 56.5194 242.186 61.7194ZM308.719 58.3861C308.586 60.5194 307.653 63.5861 306.586 65.4528L304.586 68.7861L305.253 64.2528C305.653 61.8528 306.053 58.6527 306.053 57.3194C306.053 55.8527 306.719 54.7861 307.386 54.7861C308.186 54.7861 308.719 56.3861 308.719 58.3861ZM341.253 68.3861C345.653 88.6528 345.919 90.7861 344.853 93.7194C343.919 96.3861 343.519 95.8528 341.653 89.4528C339.253 81.1861 336.719 66.2528 336.719 60.9194C336.719 54.1194 338.853 57.5861 341.253 68.3861ZM293.919 77.7194C293.786 81.5861 293.386 88.1194 292.853 92.1194L292.053 99.4528L289.386 94.7861C287.919 92.2528 285.119 86.5194 283.119 82.1194L279.519 74.1194L284.186 73.3194C286.719 72.9194 289.119 72.1194 289.653 71.7194C290.053 71.1861 291.253 70.7861 292.319 70.7861C293.519 70.7861 294.053 72.7861 293.919 77.7194ZM212.586 90.7861C212.586 91.8528 211.653 90.9194 210.719 88.7861C209.653 86.5194 208.853 83.8528 208.853 82.7861C208.853 81.7194 209.786 82.5194 210.719 84.7861C211.786 86.9194 212.586 89.7194 212.586 90.7861ZM346.853 106.386C345.386 107.853 344.586 105.853 345.653 103.319C346.586 100.919 346.719 100.919 347.119 103.186C347.386 104.519 347.253 105.986 346.853 106.386Z" fill="black"/>
<path d="M418.319 1.58617C414.586 3.05284 413.519 7.71951 414.453 18.2528C414.986 23.5862 414.719 27.0528 413.786 27.5862C413.119 28.1195 408.186 29.5862 403.119 30.9195C397.919 32.2528 393.119 33.8528 392.453 34.5195C390.053 36.9195 380.719 67.4528 380.719 73.0528C380.719 80.2528 385.519 93.1862 389.786 97.4528C392.986 100.786 392.986 100.786 392.053 120.12C391.653 130.786 390.053 145.586 388.586 153.186C387.253 160.786 386.053 169.453 386.053 172.653C386.053 176.253 385.253 179.053 384.053 180.12C382.986 181.053 382.053 182.786 382.053 184.12C382.053 185.32 379.919 187.453 377.386 188.92C374.853 190.253 372.719 191.853 372.719 192.386C372.719 193.986 383.119 193.72 390.853 191.853L397.919 190.253L400.586 181.453C402.053 176.653 404.453 166.12 405.919 158.12C408.186 145.186 410.319 136.653 415.786 117.053C416.586 114.386 417.653 112.12 418.186 112.12C418.586 112.12 420.053 119.586 421.253 128.653C423.119 142.386 423.253 147.853 422.053 160.253C421.253 168.386 420.986 178.653 421.519 182.92C422.453 191.453 422.186 191.32 439.119 193.053C446.986 193.853 447.919 192.52 442.053 188.92L437.919 186.52L438.453 163.72C438.986 140.386 442.453 105.986 444.853 100.386C445.519 98.6528 446.853 97.4528 447.786 97.8528C448.853 98.1195 450.186 94.6528 451.653 86.9195C453.786 76.7862 453.919 73.3195 452.453 56.5195C451.519 45.8528 450.319 37.3195 449.519 36.9195C448.719 36.6528 444.586 34.7862 440.319 32.9195L432.586 29.4528L433.386 33.7195C433.919 36.9195 433.386 39.4528 431.253 42.7862L428.319 47.4528L427.253 43.7195C426.719 41.5862 426.586 39.0528 426.986 37.9862C427.386 36.7862 426.719 36.1195 424.719 36.1195C422.719 36.1195 422.053 36.7862 422.453 37.9862C422.853 39.0528 422.586 42.1195 421.786 44.9195L420.453 49.8528L418.053 44.5195C414.853 37.1862 413.786 31.8528 415.386 29.4528C416.453 27.8528 417.253 28.1195 420.586 31.3195C424.453 35.0528 424.719 35.0528 427.919 32.9195C432.853 29.8528 439.386 17.7195 439.386 11.9862C439.386 5.31951 434.586 1.05284 426.986 0.786172C423.786 0.652838 419.919 1.05284 418.319 1.58617Z" fill="black"/>
<path d="M480.053 3.05273C476.719 5.7194 476.453 6.38607 477.253 12.5194C478.186 19.4527 480.853 24.6527 485.253 28.3861C486.986 29.8527 487.519 31.1861 486.719 31.7194C486.053 32.3861 485.253 34.2527 485.119 36.1194C485.119 37.9861 484.319 41.8527 483.653 44.7861C482.853 47.5861 481.786 55.1861 481.253 61.4527C480.586 71.1861 480.719 73.1861 482.586 74.6527C484.319 76.1194 485.519 76.1194 488.186 74.9194L491.519 73.4527L491.253 52.7861L490.853 32.2527L494.186 29.5861C497.919 26.6527 500.719 19.0527 500.719 11.7194C500.719 2.1194 488.053 -3.34727 480.053 3.05273Z" fill="black"/>
<path d="M550.986 1.58606C548.053 3.31939 544.186 10.9194 541.919 19.7194C540.986 23.5861 539.653 26.7861 539.119 26.7861C538.453 26.7861 538.186 27.3194 538.586 27.9861C540.053 30.1194 537.919 33.1861 533.919 34.7861C529.253 36.7861 529.119 37.3194 528.053 60.1194C527.653 69.9861 526.719 80.7861 526.053 84.1194C525.386 87.7194 525.386 90.7861 526.186 91.5861C526.853 92.3861 527.253 95.9861 527.119 99.4527C526.719 104.919 527.119 106.119 530.319 108.519C532.319 109.986 534.453 110.786 534.986 110.386C535.519 109.853 534.586 108.519 532.986 107.319C529.919 105.186 529.119 102.786 531.386 102.786C532.186 102.786 532.719 103.719 532.719 104.786C532.719 105.853 533.386 106.786 534.053 106.786C535.253 106.786 535.119 104.253 533.253 97.3194C532.853 96.1194 533.519 94.3861 534.719 93.4527C535.786 92.5194 536.719 89.8527 536.853 87.5861C536.986 83.5861 536.986 83.5861 538.053 86.7861C538.719 88.6527 540.186 98.5194 541.253 108.786C544.319 134.519 543.786 133.186 549.786 133.719L554.719 134.119L554.453 150.253C554.186 167.853 552.586 172.919 543.253 185.853C541.119 188.786 539.386 191.719 539.386 192.386C539.386 193.586 545.386 193.853 549.786 192.653C553.519 191.586 558.186 183.053 559.519 174.786C560.586 168.253 567.653 146.919 568.719 146.919C569.786 146.919 583.119 168.386 584.719 172.786C585.519 174.919 586.053 178.786 586.053 181.453C585.653 189.453 585.786 189.586 590.453 189.186C594.719 188.786 594.719 188.786 595.119 180.519C595.519 172.919 595.119 171.586 591.519 167.186C589.386 164.386 586.053 157.586 584.053 152.119C582.186 146.653 579.386 140.119 577.919 137.586C576.186 134.786 575.653 132.119 576.186 130.253C576.719 128.786 576.986 124.119 576.853 120.119C576.719 115.586 577.119 113.453 577.786 114.519C578.586 115.719 580.453 115.986 583.786 115.453C587.653 114.653 588.586 113.853 589.253 110.386C590.986 101.319 589.786 91.9861 585.386 81.4527C583.386 76.7861 580.586 66.5194 579.119 58.7861C577.653 51.0527 576.319 43.4527 575.919 41.8527C575.386 38.9194 574.186 37.4527 569.653 34.3861C567.386 32.7861 567.386 32.3861 570.586 26.7861C574.053 20.7861 575.253 10.6527 572.986 7.18606C571.653 5.05272 559.919 0.119391 556.319 0.119391C554.719 0.119391 552.319 0.786058 550.986 1.58606ZM570.053 68.7861C571.653 74.5194 573.386 80.2527 573.653 81.4527C574.053 82.5194 571.919 79.7194 568.853 75.0527C563.519 66.9194 562.853 63.3194 565.653 58.3861C566.586 56.7861 566.853 57.3194 570.053 68.7861Z" fill="black"/>
<path d="M624.986 1.05268C622.186 2.11934 619.386 8.91934 619.386 14.5193C619.386 21.0527 617.519 22.786 604.186 28.386C592.319 33.3193 590.586 35.586 584.986 52.5193C580.186 67.0527 580.586 68.5193 590.453 73.7193C595.786 76.6527 598.586 78.9193 598.186 80.1193C597.919 81.186 597.653 103.453 597.653 129.453C597.653 166.386 598.053 177.719 599.386 180.786C600.453 182.919 601.253 186.253 601.253 188.119C601.519 194.386 612.719 195.453 612.719 189.053C612.719 187.319 613.386 185.319 614.053 184.653C614.986 183.719 616.053 171.053 616.719 154.386C617.253 138.519 618.319 124.786 618.853 123.853C619.519 122.919 620.853 125.853 622.319 131.453C624.053 138.519 624.719 146.119 624.719 163.053C624.719 184.253 624.853 185.453 627.519 186.786C628.986 187.719 631.119 187.986 632.186 187.586C633.253 187.186 636.053 187.986 638.453 189.453C642.853 192.119 652.719 193.186 652.719 190.919C652.719 190.253 650.719 188.386 648.186 186.919C640.986 182.386 640.319 179.453 641.919 154.653C644.186 118.653 644.986 93.0527 644.053 89.186C643.386 86.786 641.786 85.186 639.119 84.2527C636.319 83.3193 635.386 82.2527 635.919 80.786C636.319 79.586 635.386 78.1193 633.253 77.0527L629.919 75.3193L636.986 66.2527C642.986 58.6527 644.586 57.3193 647.519 57.8527C651.386 58.386 651.519 57.7193 651.919 38.9193L652.053 31.7193L643.786 28.6527L635.386 25.4527L635.253 31.8527C635.119 35.3193 634.719 39.8527 634.186 42.1193C633.386 45.8527 633.253 45.7193 631.919 39.4527C630.053 31.586 629.786 26.786 631.253 26.786C632.986 26.786 640.319 14.386 641.119 10.2527C642.319 3.05268 633.119 -2.28066 624.986 1.05268ZM627.119 31.3193C627.119 33.586 626.853 36.9193 626.453 38.786C625.919 41.7193 625.386 41.0527 621.919 33.586C616.719 22.2527 616.853 20.6527 622.453 24.386C625.786 26.5193 626.986 28.2527 627.119 31.3193Z" fill="black"/>
<path d="M678.453 2.25281C672.053 5.45281 668.986 11.3195 669.253 19.9861C669.386 25.5861 669.919 27.4528 671.786 27.9861C673.919 28.7861 673.919 29.1861 671.386 34.1195C669.919 36.9195 668.719 41.0528 668.719 43.0528C668.719 45.0528 668.053 48.1195 667.253 49.9861C665.919 52.6528 666.186 54.5195 667.919 59.4528C669.786 64.1195 669.919 66.3861 668.853 69.7195C668.186 72.1195 666.853 77.9861 666.053 82.7861C665.119 87.5861 663.919 92.2528 663.119 93.0528C662.319 94.1195 662.053 97.1861 662.586 100.786C663.519 106.653 664.586 107.586 669.786 106.919C670.853 106.786 671.386 108.519 671.386 112.119C671.386 116.653 671.919 117.719 674.586 118.786C679.519 120.653 681.119 128.519 680.319 146.119C679.653 161.453 674.586 180.786 670.186 185.453C668.986 186.653 667.253 189.053 666.319 190.786C664.453 193.853 664.453 193.853 671.253 193.186C675.653 192.786 678.986 191.586 680.453 189.986C683.653 186.519 686.586 177.053 685.519 173.719C684.853 171.853 686.053 168.119 688.853 162.519L693.119 154.119L695.519 163.453C698.719 175.586 698.719 179.453 695.253 185.053C691.786 190.653 693.386 192.519 699.919 190.653C702.186 189.986 704.186 189.453 704.319 189.453C704.586 189.453 704.719 187.453 704.853 185.053C704.986 181.453 705.119 181.319 705.786 183.853C706.586 186.519 706.986 186.119 708.853 180.786C710.986 175.053 710.986 174.653 708.453 171.453C706.453 168.919 705.786 165.319 705.253 155.853C704.853 149.053 703.786 141.053 702.719 138.119C701.786 135.186 700.586 130.119 700.186 126.786C699.386 121.453 699.653 120.653 702.319 119.453C704.053 118.653 705.519 116.786 705.786 115.053C706.053 113.453 707.653 110.653 709.253 109.053C711.786 106.386 712.453 104.119 713.119 92.5195C715.119 63.3195 711.386 37.4528 703.786 27.1861C702.186 24.9195 700.719 22.1195 700.719 21.1861C700.719 20.1195 700.186 18.7861 699.519 17.9861C698.853 17.3195 697.653 14.5195 696.853 11.8528C695.119 6.51947 688.586 0.119472 684.986 0.119472C683.786 0.119472 680.719 1.18614 678.453 2.25281ZM704.586 69.5861C705.386 74.9195 705.919 79.4528 705.519 79.7195C704.053 81.1861 700.719 71.7195 700.719 66.1195C700.719 57.0528 702.853 58.9195 704.586 69.5861Z" fill="black"/>
<path d="M738.186 1.98607C734.053 4.25274 728.719 13.1861 728.719 17.8527C728.719 19.9861 729.653 22.5194 730.719 23.5861C733.786 26.7861 733.119 29.1861 728.853 30.1194C726.719 30.5194 724.186 31.8527 723.253 33.0527C721.119 35.4527 718.719 51.9861 716.186 81.4527C714.319 101.319 714.319 103.586 716.319 105.719C718.186 107.853 718.053 109.453 714.186 124.386C711.786 133.853 710.453 141.053 711.253 141.853C711.919 142.519 714.719 143.319 717.653 143.719C721.786 144.253 723.386 145.319 725.786 149.319C727.386 151.986 731.119 157.986 734.053 162.786C740.053 172.386 740.186 175.186 734.586 181.853C732.853 183.986 731.386 186.519 731.386 187.586C731.386 190.386 737.119 189.853 741.386 186.519L744.986 183.719L742.853 187.853C741.653 190.119 740.719 192.253 740.719 192.786C740.719 194.519 750.053 193.186 752.853 191.053C755.386 188.919 755.786 187.453 755.653 179.986C755.519 173.186 758.319 156.119 761.519 144.386C761.786 143.586 763.519 142.786 765.386 142.786C769.786 142.786 780.586 140.119 781.386 138.786C781.653 138.253 779.919 131.319 777.253 123.319C772.719 109.186 772.586 108.253 772.853 89.4527C773.119 71.3194 772.053 50.3861 770.586 40.5194C770.053 37.3194 768.853 35.5861 765.919 34.1194C762.986 32.5194 762.186 31.3194 762.719 29.4527C763.119 28.1194 762.586 25.0527 761.386 22.7861C760.186 20.3861 759.653 17.4527 760.186 15.8527C760.586 14.3861 760.453 13.4527 759.919 13.8527C759.253 14.2527 757.253 12.2527 755.519 9.58607C752.453 4.51941 746.586 0.119407 743.119 0.119407C742.186 0.252741 739.919 1.05274 738.186 1.98607ZM765.253 80.7861C766.053 86.1194 766.053 85.9861 762.719 78.7861C758.053 68.9194 757.386 65.3194 759.519 59.1861L761.253 54.1194L762.853 64.7861C763.653 70.6527 764.719 77.8527 765.253 80.7861ZM725.653 75.0527C725.253 76.1194 724.853 75.7194 724.853 74.2527C724.719 72.7861 725.119 71.9861 725.519 72.5194C725.919 72.9194 726.053 74.1194 725.653 75.0527ZM724.053 84.1194C723.519 87.1861 722.853 89.3194 722.453 88.9194C722.053 88.6527 722.186 85.8527 722.719 82.7861C723.253 79.7194 723.919 77.5861 724.319 77.9861C724.719 78.2527 724.586 81.0527 724.053 84.1194ZM718.986 104.386C718.586 105.319 718.319 104.653 718.319 102.786C718.319 100.919 718.586 100.253 718.986 101.053C719.253 101.986 719.253 103.586 718.986 104.386ZM747.386 146.653C747.386 147.986 747.786 152.919 748.186 157.586C748.853 163.853 748.719 165.719 747.519 164.786C746.053 163.319 739.386 147.319 739.386 145.186C739.386 144.653 741.253 144.119 743.386 144.119C746.453 144.119 747.386 144.786 747.386 146.653Z" fill="black"/>
<path d="M798.053 1.98614C794.186 4.11948 789.519 10.1195 788.053 14.7861C787.519 16.6528 785.919 19.5861 784.586 21.3195C782.319 24.1195 782.053 27.0528 782.053 44.6528C781.919 63.0528 779.119 85.7195 774.586 104.386C773.919 107.186 774.453 108.253 776.719 109.453C780.719 111.586 782.986 109.319 782.453 103.853C782.053 100.253 782.186 99.9861 783.253 102.119C786.053 107.986 788.719 135.319 788.719 158.653V182.519L792.586 183.453C795.786 184.119 796.586 185.053 796.986 188.519C797.386 192.253 797.919 192.786 801.386 192.786C805.253 192.786 805.386 192.653 806.986 183.453C808.053 177.053 808.186 167.053 807.519 151.453C806.853 138.919 806.719 123.186 807.119 116.386L807.653 103.986L810.853 113.053C812.586 117.986 815.119 130.519 816.719 140.786C818.186 151.053 820.319 165.053 821.519 171.719L823.653 184.119H829.519C832.586 184.119 835.653 184.786 836.053 185.453C836.586 186.253 837.519 186.519 838.186 186.119C838.853 185.586 840.719 186.786 842.319 188.653C845.119 191.719 848.186 192.653 854.719 192.253C856.853 192.119 856.453 191.186 851.786 186.386C848.853 183.319 846.053 179.319 845.653 177.453C845.386 175.586 844.053 171.453 842.986 168.119C839.253 157.453 831.519 122.386 830.853 113.053C830.186 105.053 830.453 104.119 832.586 104.119C837.386 104.119 837.786 101.586 836.719 78.1195C835.119 46.7861 833.253 34.1195 828.986 26.7861C826.986 23.4528 825.386 20.5195 825.386 20.1195C825.253 19.7195 823.919 16.2528 822.186 12.5195C817.386 1.58614 807.119 -2.94719 798.053 1.98614ZM827.386 77.9861C828.186 81.4528 828.053 82.6528 827.119 81.7195C826.319 80.9195 825.519 77.4528 825.253 73.8528C824.853 67.4528 825.386 68.3861 827.386 77.9861Z" fill="black"/>
<path d="M901.386 1.71957C896.586 4.2529 894.053 8.65289 894.053 14.3862C894.053 17.4529 893.519 20.3862 892.719 20.7862C892.053 21.1862 890.853 23.8529 890.053 26.6529C889.119 30.3862 887.786 32.1196 885.519 32.6529C882.186 33.4529 882.053 33.7196 877.919 53.8529C876.986 58.2529 875.386 62.1196 874.186 62.6529C872.453 63.5862 865.386 64.9196 851.786 66.9196C851.253 67.0529 852.586 67.5862 854.719 67.9862L858.719 68.9196L854.453 71.5862C852.053 72.9196 850.053 74.6529 850.053 75.3196C850.053 76.9196 867.919 75.3196 875.786 72.9196C882.453 70.9196 882.719 70.9196 880.853 74.5196C876.719 82.6529 874.053 91.3196 873.386 99.4529C872.853 104.52 872.053 111.186 871.386 114.12C870.453 117.986 870.719 119.986 871.919 121.453C873.253 122.92 873.519 125.32 872.719 131.053C872.053 135.186 871.253 139.186 870.853 139.853C870.453 140.52 869.519 148.253 868.719 156.92C867.386 171.586 866.986 173.32 862.586 180.52C856.986 189.453 857.253 193.986 863.119 192.653C865.119 192.12 867.119 191.453 867.786 191.186C869.919 189.986 875.519 177.186 875.919 172.386C876.319 167.853 880.853 154.786 887.653 138.12C889.119 134.386 890.719 129.72 890.986 127.72C891.653 124.653 892.319 123.986 895.253 124.386L898.719 124.786L899.119 143.986C899.386 155.853 898.986 163.72 898.053 164.653C897.386 165.32 896.719 170.12 896.719 175.053C896.719 183.586 896.986 184.253 900.053 185.72C902.853 186.92 903.919 186.92 905.519 185.186C907.253 183.453 907.386 181.986 906.053 175.32C904.453 167.986 904.586 166.92 908.053 158.12C910.053 152.92 912.319 143.72 913.253 137.453L914.719 126.12L919.786 125.72C925.519 125.186 925.386 125.32 926.719 108.12C927.919 93.4529 927.919 94.1196 926.986 85.0529C926.319 77.7196 926.453 77.1862 928.986 77.8529C930.719 78.3862 931.386 77.9862 930.986 76.9196C930.586 75.8529 932.053 73.7196 934.319 72.1196L938.453 69.0529L937.653 75.5862C935.119 94.7862 934.986 97.4529 936.586 97.4529C937.786 97.4529 938.053 98.6529 937.386 101.32C936.719 104.253 937.386 105.986 939.786 108.786C943.386 113.053 946.586 112.253 945.786 107.453C945.253 104.653 945.386 104.52 948.186 105.72C951.653 107.32 953.386 112.253 957.919 133.853C961.253 149.186 961.519 154.12 959.653 164.786C958.853 169.186 958.053 175.72 957.786 179.453L957.386 186.12L962.453 186.52C967.253 186.92 967.386 186.786 967.386 182.52C967.519 178.52 967.653 178.386 968.986 180.786C969.919 182.253 970.453 185.32 970.186 187.72C969.919 191.32 970.319 192.12 973.253 192.92C979.253 194.386 981.119 192.786 980.053 186.786C979.386 182.786 979.653 181.32 980.986 180.786C982.586 180.12 982.719 178.386 981.786 171.053C981.119 166.12 980.053 159.986 979.386 157.586C978.319 153.72 979.253 148.653 984.319 129.186C988.453 113.32 991.119 105.453 992.319 105.453C994.719 105.453 994.453 100.253 991.386 86.7862C987.253 68.6529 988.586 69.8529 993.386 88.7862C996.453 100.653 997.519 106.52 996.586 107.72C994.586 109.986 999.386 112.386 1002.45 110.653C1004.32 109.453 1004.59 107.72 1003.92 97.0529C1002.19 65.9862 998.719 39.0529 995.919 33.7196C994.986 31.8529 994.719 29.1862 995.386 27.0529C996.586 22.3862 992.853 14.6529 985.653 7.18623C981.119 2.38623 979.253 1.4529 973.253 0.652905C967.386 -0.0137621 965.386 0.252904 961.653 2.6529C954.986 6.78624 952.453 10.1196 949.786 18.3862C947.653 25.4529 947.653 25.9862 949.786 27.5862C951.253 28.7862 951.386 29.3196 950.453 29.4529C949.519 29.4529 948.719 30.1196 948.719 30.9196C948.719 31.8529 947.786 33.1862 946.719 33.9862C945.653 34.7862 944.186 39.4529 943.386 44.7862C942.719 49.8529 941.253 56.7862 940.319 60.1196L938.453 65.9862L937.519 52.7862C936.986 45.4529 935.919 38.5196 935.253 37.3196C934.586 35.9862 931.919 34.2529 929.386 33.4529C924.453 31.8529 924.053 30.9196 920.586 15.0529C917.919 2.51956 909.919 -3.08043 901.386 1.71957ZM925.653 64.3862C925.253 65.3196 924.986 64.6529 924.986 62.7862C924.986 60.9196 925.253 60.2529 925.653 61.0529C925.919 61.9862 925.919 63.5862 925.653 64.3862ZM952.053 66.7862C950.853 72.2529 949.786 71.1862 950.853 65.5862C951.386 63.3196 952.053 61.5862 952.319 61.9862C952.719 62.2529 952.586 64.5196 952.053 66.7862Z" fill="black"/>
<path d="M1022.45 2.91934C1016.85 6.51934 1014.59 14.1193 1016.32 23.586C1017.79 31.4527 1016.59 35.186 1011.92 37.3193C1010.05 38.1193 1008.05 40.2527 1007.39 41.986C1006.05 45.7193 1005.79 75.986 1006.99 95.3193C1007.65 106.919 1008.19 109.053 1010.85 111.719C1013.39 114.253 1014.19 116.786 1014.85 125.586C1015.79 135.986 1015.92 136.519 1019.65 137.719C1021.65 138.386 1023.39 139.853 1023.39 140.786C1023.39 141.719 1025.52 147.986 1028.19 154.786C1032.32 165.586 1032.72 167.986 1031.92 174.253C1031.39 179.186 1031.65 182.119 1032.72 183.453C1034.72 185.853 1038.85 186.119 1040.19 183.853C1041.65 181.586 1040.85 166.519 1039.12 164.519C1038.45 163.586 1037.39 157.719 1036.99 151.453L1036.32 140.119H1040.05C1043.65 140.119 1043.65 140.386 1042.99 145.453C1042.59 148.386 1043.12 154.786 1044.19 159.586C1045.39 165.453 1045.52 169.186 1044.72 170.786C1043.79 172.386 1044.19 176.119 1045.65 182.119C1047.39 189.053 1048.59 191.319 1050.99 192.519C1056.19 194.786 1057.65 192.119 1055.39 184.386C1052.99 176.653 1052.99 169.453 1055.25 148.786C1056.19 139.986 1057.25 127.586 1057.65 121.186C1058.19 112.119 1058.85 109.186 1060.85 107.319C1062.19 106.119 1063.39 103.719 1063.39 102.253C1063.52 100.119 1064.05 100.653 1065.52 104.119C1066.59 106.653 1068.45 109.186 1069.52 109.853C1070.59 110.386 1071.39 112.919 1071.39 115.453C1071.39 119.053 1071.92 119.986 1074.45 120.386C1076.85 120.653 1077.65 122.119 1079.12 128.786C1079.92 133.186 1081.39 145.719 1082.05 156.519C1082.85 167.453 1084.05 177.586 1084.85 179.053C1086.19 181.453 1085.79 182.253 1082.19 185.053C1076.59 189.453 1076.85 192.119 1082.59 192.119C1090.05 192.119 1100.99 189.053 1101.65 186.919C1101.92 185.719 1102.85 183.719 1103.52 182.519C1105.39 179.053 1104.99 176.386 1102.19 172.386C1098.45 167.186 1096.99 148.786 1098.72 129.719C1099.52 121.319 1099.92 120.119 1102.32 120.119C1104.32 120.119 1106.19 122.786 1110.19 131.453C1116.05 143.853 1119.65 159.986 1119.39 172.786C1119.25 181.319 1122.45 190.119 1126.05 191.586C1129.52 192.919 1147.39 193.853 1147.39 192.653C1147.39 192.119 1145.92 190.119 1144.32 188.253C1139.52 182.919 1132.99 156.253 1129.12 125.719C1128.45 121.053 1128.72 120.119 1130.59 120.119C1134.32 120.119 1134.45 116.653 1131.39 105.053L1128.45 93.986L1131.25 84.5193C1136.72 66.1193 1136.59 64.386 1128.45 41.186C1125.79 33.7193 1125.39 33.3193 1118.19 30.786C1114.05 29.186 1109.25 26.9193 1107.39 25.4527C1104.32 23.186 1104.19 22.6527 1105.79 18.5193C1109.52 7.98601 1106.19 0.919342 1097.39 0.919342C1091.92 0.919342 1089.25 3.05268 1087.25 9.05268C1086.05 12.786 1086.19 14.386 1087.52 16.9193C1090.59 22.6527 1087.79 26.9193 1078.19 31.586C1068.45 36.2527 1068.45 36.386 1064.45 55.4527C1062.45 65.3193 1061.92 71.586 1062.45 79.3193C1062.85 85.8527 1062.72 89.186 1061.92 87.986C1061.25 86.9193 1060.72 83.186 1060.72 79.586C1060.72 75.8527 1060.05 69.586 1059.39 65.586C1058.59 61.4527 1057.52 53.586 1056.99 48.1193C1056.05 38.1193 1056.05 38.1193 1051.39 36.6527L1046.72 35.0527L1046.05 23.986C1045.65 17.8527 1044.72 11.586 1043.79 10.1193C1038.72 1.18601 1029.52 -1.88066 1022.45 2.91934ZM1017.39 76.1193C1016.19 78.2527 1015.12 80.1193 1014.85 80.1193C1014.72 80.1193 1014.99 77.3193 1015.52 73.7193C1016.05 70.2527 1016.59 66.5193 1016.72 65.4527C1016.85 64.386 1017.52 65.4527 1018.19 67.7193C1019.12 71.0527 1018.99 73.0527 1017.39 76.1193ZM1056.19 87.586C1057.39 91.586 1057.92 95.3193 1057.65 95.7193C1057.25 96.1193 1056.19 93.7193 1055.39 90.6527C1054.59 87.4527 1053.65 83.7193 1053.25 82.386C1052.85 81.186 1052.85 80.1193 1053.25 80.1193C1053.65 80.1193 1054.99 83.4527 1056.19 87.586ZM1072.72 104.919C1072.72 105.986 1072.05 106.519 1071.39 106.119C1070.59 105.586 1070.32 104.653 1070.72 103.986C1071.92 102.119 1072.72 102.519 1072.72 104.919Z" fill="black"/>
<path d="M1167.92 4.65265C1162.72 9.85265 1161.52 17.986 1165.79 19.3193C1166.99 19.7193 1168.72 21.186 1169.65 22.6526C1171.92 26.1193 1169.25 29.3193 1161.92 31.986C1156.45 33.986 1155.92 34.6526 1154.99 40.1193C1154.45 43.4526 1153.65 49.8526 1153.39 54.386C1153.25 58.9193 1152.32 64.6526 1151.52 67.0526C1150.85 69.4526 1149.52 75.586 1148.59 80.6526C1147.79 85.7193 1145.92 92.9193 1144.59 96.6526C1142.19 103.319 1142.19 103.453 1144.85 105.719C1147.52 107.986 1147.52 108.653 1146.19 121.453C1145.39 128.919 1144.72 146.519 1144.72 160.653C1144.72 189.586 1145.12 190.786 1154.45 190.786C1157.25 190.786 1159.39 191.453 1159.39 192.253C1159.39 193.453 1163.79 193.586 1174.85 193.186C1188.59 192.519 1190.45 192.119 1192.19 189.586C1193.52 187.853 1195.65 186.786 1198.19 186.786C1200.32 186.786 1202.05 186.253 1202.05 185.586C1202.05 182.786 1193.92 113.586 1192.85 107.453C1191.39 98.9193 1192.85 88.1193 1196.59 78.786C1199.25 72.6526 1199.65 69.186 1199.52 57.3193C1199.25 38.386 1197.52 33.4526 1190.32 31.0526C1185.25 29.4526 1179.92 24.1193 1183.25 24.1193C1186.19 24.1193 1188.72 19.7193 1188.72 14.6526C1188.72 7.05265 1185.79 1.98598 1180.59 0.919315C1173.79 -0.414018 1172.72 -0.147352 1167.92 4.65265ZM1191.25 59.186C1192.59 66.786 1190.99 78.786 1188.59 78.786C1187.25 78.786 1185.79 71.0526 1185.65 64.1193C1185.65 58.6526 1188.05 49.7193 1189.25 50.9193C1189.52 51.186 1190.45 54.9193 1191.25 59.186Z" fill="black"/>
<path d="M1224.99 2.25263C1222.59 3.85263 1222.05 5.58596 1222.05 10.6526C1222.05 15.186 1222.72 17.4526 1224.05 17.986C1225.12 18.386 1226.05 20.2526 1226.05 21.986C1226.05 24.1193 1227.25 26.2526 1229.39 27.586C1232.72 29.7193 1233.65 33.8526 1231.52 37.3193C1230.72 38.5193 1229.79 37.3193 1228.05 32.9193C1226.19 27.986 1225.25 27.0526 1223.92 28.2526C1222.99 29.0526 1218.72 31.186 1214.45 32.786C1208.45 35.3193 1206.59 36.786 1205.65 39.7193C1202.19 51.586 1198.45 100.119 1200.99 100.119C1201.52 100.119 1202.45 102.519 1202.85 105.453C1203.92 111.853 1206.19 113.986 1210.59 112.919C1212.45 112.519 1214.19 112.653 1214.59 113.186C1214.99 113.853 1216.45 125.319 1217.92 138.919C1219.52 152.386 1221.52 166.653 1222.59 170.519C1224.32 176.786 1224.32 177.719 1222.59 178.386C1221.25 178.786 1220.72 180.519 1220.99 182.786C1221.12 184.786 1220.45 187.453 1219.39 188.786C1217.79 190.653 1217.79 191.186 1219.52 192.253C1222.59 194.119 1227.65 193.453 1234.05 190.386C1240.85 186.919 1240.59 188.919 1238.19 163.453C1237.25 154.653 1236.85 138.386 1236.99 127.453C1237.39 108.653 1237.52 107.853 1239.12 113.186C1240.05 116.386 1242.32 127.853 1244.19 138.519C1245.92 149.319 1248.72 162.919 1250.32 168.786C1251.79 174.653 1253.39 181.453 1253.79 183.853C1254.19 187.186 1255.25 188.653 1257.92 189.719C1259.79 190.519 1262.45 191.586 1263.65 192.253C1266.72 193.853 1276.32 193.853 1277.25 192.253C1277.65 191.586 1277.12 190.386 1276.05 189.453C1274.85 188.519 1274.45 186.519 1274.85 184.253C1275.25 182.119 1274.19 175.853 1272.19 169.319C1268.59 157.319 1264.19 135.319 1262.72 121.719C1261.79 113.453 1261.79 113.453 1265.12 113.453C1267.25 113.453 1268.85 112.519 1269.25 111.053C1270.59 106.519 1268.99 68.5193 1266.99 54.786C1264.19 36.2526 1263.25 33.986 1257.79 32.786C1255.39 32.2526 1250.85 30.5193 1247.92 28.786L1242.32 25.8526L1240.72 33.586C1239.79 37.986 1238.59 41.4526 1238.05 41.4526C1237.39 41.4526 1236.59 38.9193 1236.05 35.8526C1235.25 31.3193 1235.52 29.986 1237.79 28.2526C1242.99 23.986 1244.05 6.38596 1239.25 2.38596C1235.79 -0.41404 1228.99 -0.547373 1224.99 2.25263ZM1216.59 64.386C1216.59 66.786 1215.79 72.386 1214.72 76.786L1212.99 84.786L1212.85 78.6526C1212.72 70.2526 1214.19 60.1193 1215.52 60.1193C1216.19 60.1193 1216.72 62.1193 1216.59 64.386ZM1254.99 65.7193C1254.59 66.786 1254.19 66.386 1254.19 64.9193C1254.05 63.4526 1254.45 62.6526 1254.85 63.186C1255.25 63.586 1255.39 64.786 1254.99 65.7193ZM1264.72 106.386C1264.72 107.053 1264.05 108.386 1263.39 109.453C1262.32 111.053 1262.05 110.919 1262.05 108.386C1262.05 106.786 1262.72 105.453 1263.39 105.453C1264.19 105.453 1264.72 105.853 1264.72 106.386Z" fill="black"/>
<path d="M1292.19 2.91931C1290.19 4.38598 1287.39 8.11931 1285.92 11.0526C1283.39 15.986 1283.25 17.186 1284.72 25.0526C1286.45 33.7193 1286.45 33.7193 1282.72 36.6526C1279.25 39.4526 1278.99 40.386 1276.59 62.786C1275.12 75.586 1273.12 89.986 1272.05 94.786C1270.45 102.386 1270.45 103.853 1272.19 106.519C1274.32 109.853 1279.12 109.986 1278.19 106.653C1277.12 102.386 1277.79 90.786 1279.25 90.786C1280.19 90.786 1280.05 103.319 1278.99 121.453C1278.72 125.986 1278.99 126.119 1284.59 127.586L1290.59 128.919L1293.65 142.519C1295.25 150.119 1297.52 159.053 1298.59 162.653C1300.85 170.386 1299.92 180.919 1296.59 185.319C1292.59 190.253 1295.25 193.453 1303.39 193.453C1309.65 193.453 1309.92 193.319 1311.52 188.786C1313.25 184.253 1313.39 184.119 1314.59 187.053C1315.65 189.719 1315.92 189.053 1316.99 182.253C1318.05 175.853 1317.79 174.119 1316.05 172.119C1314.72 170.519 1313.65 165.586 1312.85 157.319C1312.05 148.253 1310.99 143.453 1308.99 140.119C1305.39 134.386 1305.39 133.453 1308.45 133.453C1309.79 133.453 1313.39 131.453 1316.45 129.186L1322.05 124.786L1321.25 116.919C1320.45 109.719 1320.59 108.919 1323.39 106.786C1325.92 104.786 1326.72 102.653 1327.52 94.6526C1328.19 89.186 1329.25 84.6526 1330.05 84.386C1332.85 83.4526 1330.59 40.786 1327.39 34.786C1326.72 33.4526 1324.19 31.986 1321.92 31.4526C1317.79 30.5193 1316.85 29.4526 1316.19 23.986C1315.92 22.2526 1315.39 19.8526 1315.12 18.786C1314.72 17.7193 1313.65 14.2526 1312.59 11.0526C1309.52 0.785982 1299.79 -3.08068 1292.19 2.91931ZM1320.32 67.0526C1320.05 68.786 1319.79 67.7193 1319.79 64.786C1319.65 61.8526 1319.92 60.5193 1320.32 61.7193C1320.59 63.0526 1320.59 65.4526 1320.32 67.0526Z" fill="black"/>
<path d="M1358.05 1.05269C1353.25 2.78603 1351.39 5.85269 1351.39 12.1194C1351.39 15.986 1352.19 19.0527 1353.25 19.986C1354.32 20.9194 1355.52 22.9194 1355.92 24.6527C1356.32 26.386 1358.32 28.786 1360.19 30.1194C1363.52 32.2527 1363.92 32.2527 1367.12 29.8527C1370.99 26.9194 1373.79 17.586 1372.99 10.2527C1372.05 2.78603 1365.12 -1.48064 1358.05 1.05269Z" fill="black"/>
<path d="M1437.12 2.65269C1435.79 4.11936 1432.99 10.2527 1430.72 16.2527C1426.99 26.386 1426.32 27.186 1421.65 28.786C1418.85 29.7194 1413.12 33.3194 1408.85 36.6527C1404.59 39.986 1400.32 42.786 1399.39 43.0527C1398.32 43.3194 1396.99 41.3194 1396.05 38.1194C1394.59 33.0527 1394.05 32.6527 1387.25 31.186C1383.25 30.2527 1378.45 28.9194 1376.45 28.2527C1372.99 27.186 1372.72 27.3194 1372.72 30.2527C1372.72 34.1194 1369.25 41.4527 1367.39 41.4527C1366.05 41.4527 1365.52 38.6527 1365.92 35.0527C1366.05 34.2527 1365.25 33.4527 1364.05 33.4527C1362.99 33.4527 1362.05 34.6527 1362.05 36.1194C1362.05 40.386 1358.32 39.186 1356.72 34.2527L1355.25 29.7194L1346.32 33.186C1341.39 35.0527 1337.12 36.786 1336.85 36.9194C1336.72 37.186 1335.65 44.6527 1334.59 53.7194C1330.72 89.0527 1333.52 113.319 1341.52 113.453C1343.65 113.453 1344.59 120.386 1346.05 145.453C1346.99 164.119 1350.19 185.986 1352.05 187.986C1352.32 188.253 1352.05 189.586 1351.25 190.919C1350.05 193.186 1350.45 193.453 1355.79 193.453C1363.25 193.453 1368.72 190.919 1368.72 187.453C1368.72 185.986 1367.65 180.919 1366.19 176.119C1362.72 163.853 1361.52 144.653 1363.39 129.453C1365.52 112.786 1366.32 111.586 1369.79 119.986C1372.45 125.986 1372.72 129.186 1372.99 151.053C1372.99 164.519 1372.59 178.786 1372.05 182.919C1370.85 191.853 1371.25 192.253 1382.85 193.186C1391.12 193.853 1392.99 192.919 1390.05 189.986C1389.25 189.186 1389.25 187.053 1390.05 184.119C1390.85 181.586 1391.39 174.386 1391.39 168.119C1391.39 161.853 1392.05 144.653 1392.99 129.719C1394.19 109.053 1394.85 102.786 1396.32 102.786C1397.25 102.786 1398.05 101.719 1398.05 100.386C1398.05 99.186 1399.25 94.5194 1400.72 90.2527C1402.19 85.8527 1403.39 79.186 1403.39 75.4527V68.5194L1411.12 72.2527C1415.25 74.2527 1419.79 76.2527 1420.99 76.6527C1422.85 77.186 1423.12 78.9194 1422.45 89.8527C1421.65 102.786 1423.92 123.453 1426.32 126.519C1427.25 127.586 1427.25 129.853 1426.32 133.853C1425.52 136.919 1424.59 151.053 1424.32 165.186L1423.79 191.053L1426.85 192.386C1432.85 195.186 1433.65 193.453 1434.45 177.853C1435.12 164.253 1440.85 127.586 1442.59 125.853C1444.85 123.453 1441.39 159.319 1437.25 179.186C1434.85 190.919 1435.25 193.453 1439.65 193.453C1444.72 193.453 1445.65 191.853 1446.72 182.786C1447.25 177.986 1449.79 167.186 1452.45 158.786C1454.99 150.386 1457.25 140.386 1457.52 136.653C1457.79 132.919 1459.39 125.453 1461.12 119.986C1462.85 114.519 1465.12 106.119 1466.05 101.053C1467.92 92.2527 1467.39 88.1194 1463.25 73.586C1462.85 72.5194 1464.05 71.7194 1466.19 71.4527C1468.19 71.186 1472.72 69.4527 1476.45 67.586L1483.39 64.1194L1482.59 67.8527C1481.12 75.186 1484.19 82.1194 1491.65 88.1194C1495.39 91.0527 1499.92 93.8527 1501.65 94.2527C1505.52 95.3194 1505.52 95.3194 1501.12 101.053C1497.92 105.186 1497.79 105.853 1499.65 106.919C1501.52 107.986 1501.52 109.186 1498.72 119.986C1497.12 126.519 1495.25 132.519 1494.72 133.319C1494.19 134.253 1493.39 144.919 1492.85 157.186C1492.05 176.386 1491.52 180.253 1488.99 185.586C1487.39 188.919 1486.05 191.986 1486.05 192.519C1486.05 193.053 1488.45 193.453 1491.39 193.453C1496.32 193.453 1496.85 193.053 1497.65 189.453C1498.45 185.053 1500.19 184.253 1501.12 187.719C1501.52 189.186 1501.79 188.786 1501.92 186.519C1501.92 184.519 1502.72 181.453 1503.52 179.719C1504.59 177.453 1504.59 175.719 1503.65 173.853C1502.59 171.853 1502.85 169.186 1504.72 163.053C1506.19 158.519 1507.65 150.786 1508.19 145.853C1509.12 136.253 1511.25 131.319 1519.65 117.986C1523.79 111.319 1525.25 109.853 1527.52 110.386C1530.19 111.053 1530.19 111.853 1529.65 138.653C1529.25 153.719 1528.32 167.719 1527.52 169.719C1526.72 171.719 1526.32 176.253 1526.72 179.719C1526.99 183.319 1527.25 186.786 1527.39 187.586C1527.39 189.719 1531.92 190.653 1534.72 189.186C1536.72 187.986 1536.85 186.653 1536.05 179.586C1535.52 174.386 1535.79 169.986 1536.85 167.453C1537.65 165.186 1539.39 159.586 1540.59 154.786L1542.85 146.119L1548.45 146.653C1555.65 147.053 1574.85 140.919 1576.72 137.453C1578.59 133.853 1577.39 118.786 1574.85 113.719C1572.59 109.186 1569.12 106.786 1565.12 106.786C1562.99 106.786 1562.32 105.053 1561.12 95.0527C1560.32 88.6527 1558.05 78.786 1556.05 73.4527C1554.05 67.986 1551.25 59.8527 1549.92 55.4527C1545.79 42.9194 1542.99 38.2527 1538.72 36.2527C1536.59 35.186 1534.32 33.7194 1533.79 32.786C1533.25 31.8527 1531.25 31.4527 1529.39 31.8527C1526.85 32.2527 1526.05 31.8527 1526.05 30.2527C1526.05 28.9194 1526.72 28.386 1527.39 28.786C1528.19 29.186 1528.72 28.786 1528.72 27.8527C1528.72 26.6527 1529.12 26.6527 1530.05 28.1194C1530.99 29.4527 1531.39 26.786 1531.39 19.4527C1531.25 9.71936 1530.99 8.38603 1527.52 4.11936C1524.05 -0.0139749 1523.25 -0.413975 1519.92 0.786025C1514.59 2.65269 1510.85 9.98603 1510.05 19.8527C1509.52 26.5194 1509.65 27.986 1511.12 27.4527C1512.32 27.0527 1512.72 27.586 1512.45 29.186C1512.19 30.786 1510.45 31.586 1506.72 31.8527C1499.39 32.5194 1494.05 36.9194 1489.52 46.5194L1485.65 54.6527L1481.52 51.7194C1471.79 44.9194 1460.05 34.5194 1458.99 31.7194C1458.45 30.1194 1457.52 24.1194 1457.12 18.386C1456.19 5.71936 1453.65 1.98603 1445.12 0.652692C1440.59 -0.0139749 1439.25 0.252692 1437.12 2.65269ZM1417.52 48.786C1416.99 51.0527 1417.92 54.5194 1420.72 60.1194C1424.19 66.9194 1424.45 68.2527 1422.72 68.9194C1418.99 70.386 1414.72 68.2527 1408.05 61.4527C1402.72 55.986 1401.79 54.386 1403.39 53.4527C1404.45 52.786 1407.52 50.786 1410.05 48.9194C1416.19 44.5194 1418.59 44.5194 1417.52 48.786ZM1467.39 53.7194C1470.99 56.1194 1474.05 58.6527 1474.05 59.4527C1474.05 60.1194 1471.92 62.1194 1469.39 63.8527C1464.99 66.6527 1464.45 66.6527 1459.92 64.786C1456.05 63.186 1455.25 62.2527 1456.05 60.5194C1456.72 59.186 1457.39 56.1194 1457.79 53.7194C1458.05 51.4527 1458.85 49.4527 1459.52 49.4527C1460.19 49.4527 1463.79 51.4527 1467.39 53.7194ZM1504.32 61.0527C1505.52 65.3194 1506.59 71.986 1506.45 75.986C1506.32 79.986 1506.72 84.2527 1507.52 85.7194C1509.39 89.0527 1506.99 88.786 1502.85 85.0527C1498.72 81.3194 1494.05 72.5194 1494.05 68.2527C1494.05 64.386 1499.12 53.4527 1500.85 53.4527C1501.39 53.4527 1502.99 56.9194 1504.32 61.0527ZM1558.59 106.653C1558.99 107.319 1558.05 108.119 1556.45 108.519C1553.12 109.453 1552.05 108.919 1553.39 106.919C1554.45 105.186 1557.65 105.053 1558.59 106.653Z" fill="black"/>
<path d="M1591.79 1.58618C1586.05 3.31951 1583.39 7.58618 1582.45 16.7862C1581.79 22.7862 1580.59 25.8528 1576.85 30.6528C1573.65 34.9195 1570.85 41.0528 1567.79 51.4528C1563.92 64.3862 1563.52 67.3195 1564.19 76.1195C1564.99 85.8528 1566.72 90.5195 1571.39 95.0528C1572.72 96.2528 1574.19 100.12 1574.72 103.586C1575.25 107.053 1576.85 113.053 1578.32 116.653C1582.05 126.253 1586.59 148.653 1586.59 157.72C1586.59 161.853 1585.65 167.586 1584.45 170.386C1577.25 188.119 1576.99 189.319 1578.85 190.919C1579.79 191.719 1582.32 191.986 1584.59 191.453C1588.19 190.653 1588.72 189.986 1589.39 184.386C1590.99 173.053 1592.72 167.586 1594.45 169.32C1596.45 171.32 1597.25 185.853 1595.52 189.186C1594.32 191.453 1594.45 192.253 1596.32 193.319C1597.65 193.986 1600.45 194.253 1602.45 193.853C1605.39 193.319 1606.05 192.386 1606.05 188.92C1606.19 186.653 1606.99 183.32 1607.92 181.453C1609.65 178.52 1609.52 177.853 1606.72 174.519C1601.92 168.92 1600.72 154.653 1603.25 136.253C1604.85 124.653 1607.65 116.12 1609.79 116.12C1610.45 116.12 1611.79 113.32 1612.72 109.72C1613.65 106.253 1616.45 101.053 1618.85 97.9862C1625.25 89.9862 1627.25 80.6528 1626.45 61.0528C1625.65 39.8528 1625.52 39.1862 1620.05 36.5195C1617.52 35.3195 1615.39 33.4528 1615.39 32.5195C1615.39 28.5195 1607.25 5.71951 1605.12 3.71951C1601.79 0.91951 1596.85 0.11951 1591.79 1.58618ZM1616.59 59.7195C1617.39 63.8528 1618.05 72.1195 1618.05 77.9862L1617.92 88.7862L1612.72 75.7195C1609.79 68.6528 1607.39 62.1195 1607.39 61.3195C1607.39 59.7195 1612.99 52.2528 1614.19 52.2528C1614.59 52.1195 1615.65 55.5862 1616.59 59.7195ZM1576.32 65.0528C1575.25 76.6528 1573.39 83.9862 1572.05 81.0528C1571.12 78.9195 1571.65 73.3195 1573.65 61.7195C1574.85 54.2528 1576.99 56.9195 1576.32 65.0528Z" fill="black"/>
<path d="M1649.12 3.58614C1645.39 6.38614 1644.72 7.85281 1644.72 12.3861C1644.72 16.6528 1645.52 18.5195 1648.72 21.4528C1654.32 26.6528 1653.79 29.0528 1646.85 32.1195C1639.65 35.1861 1636.99 38.9195 1635.92 47.5861C1635.52 51.1861 1632.99 62.2528 1630.45 72.1195L1625.65 90.1195L1627.92 101.586C1630.59 115.453 1630.59 122.386 1628.05 126.786C1624.32 133.319 1625.39 135.586 1635.25 141.453C1640.72 144.786 1645.12 146.519 1646.59 145.986C1649.79 144.786 1649.39 135.453 1645.92 130.519C1643.39 127.053 1638.05 112.119 1638.05 108.786C1638.19 106.119 1650.05 131.186 1650.05 133.986C1650.05 135.586 1651.52 142.786 1653.52 149.986C1657.25 164.653 1656.99 167.586 1651.39 176.119C1647.12 182.519 1647.25 184.119 1652.19 184.119C1654.99 184.119 1655.39 184.786 1655.39 188.786C1655.39 193.986 1657.92 194.919 1662.59 191.453C1666.19 188.786 1669.39 164.519 1666.59 161.453C1665.39 159.986 1664.85 155.453 1664.85 146.119C1664.85 138.786 1664.72 130.653 1664.59 128.119C1664.45 125.319 1666.45 118.519 1669.79 110.786C1672.72 103.853 1675.79 94.6528 1676.72 90.3861C1678.05 83.9861 1678.85 82.3861 1681.65 81.3195C1686.32 79.5861 1696.99 70.5195 1702.19 63.9861L1706.45 58.6528L1701.39 51.4528C1691.25 36.6528 1686.85 32.6528 1676.05 28.7861L1666.19 25.1861L1668.72 21.7195C1671.65 18.1195 1672.19 10.7861 1670.05 6.65281C1668.19 3.31947 1661.79 0.119472 1657.12 0.119472C1655.12 0.119472 1651.39 1.71947 1649.12 3.58614ZM1694.05 58.5195C1694.05 61.0528 1680.32 74.7861 1677.65 74.7861C1676.45 74.7861 1674.85 73.5861 1674.05 72.1195C1672.32 68.9195 1673.79 63.4528 1678.99 53.0528L1682.19 46.6528L1688.05 51.7195C1691.25 54.5195 1693.92 57.5861 1694.05 58.5195ZM1634.99 93.0528C1634.59 94.3861 1634.32 93.3195 1634.32 90.7861C1634.32 88.2528 1634.59 87.1861 1634.99 88.3861C1635.25 89.7195 1635.25 91.8528 1634.99 93.0528ZM1633.92 116.786C1634.05 119.853 1633.65 120.253 1632.72 118.786C1632.05 117.719 1631.52 114.653 1631.52 112.119C1631.52 108.253 1631.79 107.986 1632.72 110.119C1633.39 111.586 1633.92 114.519 1633.92 116.786ZM1638.32 117.453C1638.72 119.586 1638.45 121.453 1637.79 121.453C1637.25 121.453 1636.72 119.586 1636.72 117.453C1636.72 115.186 1636.99 113.453 1637.25 113.453C1637.52 113.453 1638.05 115.186 1638.32 117.453Z" fill="black"/>
<path d="M480.186 27.8526C479.786 28.5193 475.786 30.1193 471.253 31.4526C461.653 34.386 460.053 36.386 458.186 48.1193C453.519 78.6526 453.253 107.319 457.653 112.253C459.253 114.119 459.253 116.253 458.053 125.453C456.853 134.253 456.986 137.586 458.453 143.186C459.519 147.053 460.853 156.653 461.253 164.786C461.786 172.786 462.453 180.786 462.853 182.253C463.519 184.519 462.586 185.453 458.186 187.319C447.386 191.586 452.453 193.053 471.786 191.186L480.719 190.386V185.186C480.719 182.253 480.053 178.786 479.253 177.186C478.453 175.719 477.119 166.919 476.453 157.719C474.986 141.053 474.986 140.653 478.586 129.986C484.186 113.186 485.119 112.653 487.253 124.786C489.519 137.319 488.453 162.253 485.386 168.119C482.319 173.986 482.719 185.586 486.186 189.986C488.453 192.786 490.053 193.453 494.853 193.453C500.719 193.453 502.453 191.719 499.253 188.519C498.319 187.586 498.719 185.719 500.719 182.386C503.119 178.253 503.519 174.919 504.186 154.519C504.586 139.853 505.653 128.119 507.119 122.386C508.986 114.253 509.653 113.186 512.853 112.519C515.919 111.986 517.119 110.386 519.919 103.319C522.853 95.986 523.386 92.786 523.386 80.386C523.386 63.186 521.519 44.6526 519.386 39.986C518.319 37.586 514.986 35.3193 508.586 32.386C503.519 30.2526 499.119 28.786 498.853 29.3193C498.453 29.8526 497.519 37.7193 496.719 46.786C495.519 59.4526 495.519 65.3193 496.719 71.8526C497.653 76.386 498.053 80.6526 497.653 81.0526C497.119 81.4526 492.586 82.1193 487.253 82.5193L477.786 83.186L478.586 75.3193C479.786 65.7193 481.919 27.586 481.386 27.0526C481.119 26.786 480.719 27.186 480.186 27.8526ZM512.453 78.786V82.1193L511.386 78.786C510.853 76.9193 510.319 72.786 510.319 69.4526L510.453 63.4526L511.519 69.4526C512.053 72.786 512.453 76.9193 512.453 78.786ZM510.986 105.719C510.586 106.786 510.186 106.386 510.186 104.919C510.053 103.453 510.453 102.653 510.853 103.186C511.253 103.586 511.386 104.786 510.986 105.719ZM462.053 105.986C462.053 106.386 461.519 107.053 460.719 107.453C460.053 107.853 459.386 107.586 459.386 106.919C459.386 106.119 460.053 105.453 460.719 105.453C461.519 105.453 462.053 105.719 462.053 105.986Z" fill="black"/>
<path d="M650.719 69.586C650.186 70.2526 650.719 71.986 651.919 73.3193C653.119 74.6526 653.653 76.1193 653.119 76.5193C652.719 77.0526 652.853 77.4526 653.653 77.4526C655.386 77.4526 660.719 71.7193 660.719 69.7193C660.719 67.7193 651.919 67.586 650.719 69.586Z" fill="black"/>
</svg>
